<svg width="59" height="55" viewBox="0 0 59 55" fill="none" xmlns="http://www.w3.org/2000/svg">
<path d="M30.2325 19.8252C30.2565 20.0879 30.4627 20.3024 30.6881 20.3024C30.9135 20.3024 31.0813 20.0923 31.0573 19.8252C31.0525 19.7727 31.0381 19.7202 31.0238 19.672C30.9326 19.6808 30.7888 19.6896 30.573 19.6589C30.4483 19.6414 30.3476 19.6108 30.2709 19.5757C30.2421 19.6502 30.2277 19.7333 30.2325 19.8209M36.6106 29.7138C37.0038 30.2084 38.4473 31.7712 38.6871 32.651C38.9268 33.5309 38.9604 33.8855 38.7158 34.6296C38.4761 35.3738 38.1452 36.385 38.9268 36.6082C39.7085 36.8271 40.0394 35.9779 40.1929 35.3169C40.3415 34.6559 41.1232 33.7235 41.6076 33.4215C42.0871 33.1194 41.9672 31.885 41.1568 31.5829C40.3463 31.2809 39.1714 30.8432 38.5384 29.9896C37.9054 29.1404 37.6368 28.4794 36.9463 28.5625C36.2557 28.6457 36.2221 29.2235 36.6154 29.7138M30.1558 29.5168C31.1772 29.7663 32.894 30.5061 33.973 32.2921C35.0568 34.0737 35.1479 34.4064 35.7186 34.24C36.2893 34.0737 35.9872 33.0888 35.4453 31.9594C34.9034 30.8344 34.4861 29.8189 34.0018 29.0791C33.5222 28.3349 32.8269 28.0635 31.8965 28.173C30.9662 28.2824 30.5442 28.2824 29.9112 28.2561C29.2782 28.2299 29.1295 29.2717 30.151 29.5168M13.6207 29.2323C13.0452 29.171 12.9541 29.3023 12.8917 29.9983C12.9589 30.3398 13.026 30.725 13.1315 31.0095C13.3425 31.5873 13.7645 32.1345 13.3137 32.082C12.863 32.0294 11.688 31.2284 10.7002 30.0202C9.70748 28.812 10.1007 27.1661 10.1295 26.7547C10.1583 26.3432 10.5179 26.2031 10.0671 25.3276C9.61636 24.4478 9.52525 23.4629 9.5828 22.6399C9.64514 21.817 10.6042 21.2391 10.7577 20.692C10.9064 20.1448 11.0598 19.567 11.7792 19.2387C12.4985 18.9104 13.3137 18.0612 14.0954 17.6497C14.8771 17.2338 16.3829 16.494 16.8337 16.0826C17.2845 15.6711 18.0374 15.2859 17.8839 14.7912C17.7353 14.2966 17.4044 13.7188 18.0374 13.7188C18.6704 13.7188 19.0588 13.6662 19.6583 13.1716C20.2577 12.677 20.6222 11.8803 22.1568 11.4688C23.6913 11.0573 24.4394 10.0418 26.5159 9.95859C28.5924 9.87542 29.8536 9.98485 31.206 9.98485C32.5583 9.98485 33.5798 9.81851 34.8122 9.59964C36.0447 9.37639 36.3756 8.88612 37.4594 8.33457C38.5432 7.78302 40.073 7.78302 40.7683 7.73049C41.4589 7.67358 41.7898 7.94936 41.5164 8.3871C41.2479 8.82484 40.7683 9.48583 40.6149 10.0374C40.4662 10.5846 41.2479 10.7772 41.2479 10.996C41.2479 11.2149 40.5861 11.0529 40.1065 10.8603C39.627 10.6677 39.3249 10.1206 39.4735 9.84477C39.627 9.569 40.917 8.85548 40.8547 8.44401C40.7971 8.03253 40.1641 8.27767 39.3536 8.52718C38.5432 8.77231 38.1787 9.48583 38.2411 10.2562C38.2986 11.0223 38.994 11.1886 38.8741 11.4644C38.7542 11.7402 37.7903 11.2718 36.8312 10.996C35.8673 10.7203 32.1075 10.6108 30.9662 10.6108C29.8249 10.6108 27.3599 10.5846 25.4609 10.996C23.5667 11.4075 21.73 12.3136 21.0682 13.3029C20.4064 14.2922 19.7446 14.1828 18.9629 14.1828C18.608 14.1828 18.5745 14.3141 18.6416 14.498C19.2363 14.997 19.735 15.1764 20.3105 15.1764C20.8859 15.1764 21.0778 15.3384 20.9771 15.6448C20.8763 15.9469 20.6318 16.0651 19.4664 16.1833L19.0828 16.227C18.3539 16.3846 18.8814 16.656 18.8814 16.8224C18.8814 16.9887 18.3395 17.1113 18.0661 17.085C17.8408 17.0631 17.4187 17.085 17.1598 17.2207C17.107 17.247 17.0639 17.2776 17.0303 17.317C16.8193 17.5359 16.896 17.7285 16.6083 17.8773C16.3206 18.0305 15.6636 18.0174 15.1792 18.0436C14.7236 18.1706 14.3448 18.2844 14.1098 18.4157C13.448 18.7747 13.3281 19.3218 14.2297 19.5932C15.1313 19.869 15.793 19.8953 16.6946 19.3744C16.8481 19.2868 17.0063 19.2037 17.1646 19.1249C17.5003 18.7397 17.4667 18.6477 17.2653 18.3588C17.0543 18.0568 17.3276 17.8116 17.9894 17.8904C18.6512 17.9736 19.2506 18.4113 19.6151 18.2756C19.9748 18.1399 19.5863 17.9473 19.735 17.6716C19.8837 17.3958 20.579 17.5359 21.2696 17.6453C21.8403 17.7329 22.2239 18.0086 23.231 18.1837C23.792 18.2012 24.2668 18.2144 24.5162 18.1925C25.178 18.1399 25.7774 18.1093 25.811 17.8073C25.8398 17.5052 25.0581 17.3126 25.3314 16.958C25.6048 16.6035 26.6742 16.5728 27.1969 16.7392C28.4917 17.1507 27.9834 18.1049 29.7002 18.2975C31.4122 18.4901 32.52 18.1399 33.8723 18.3326C35.2247 18.5252 36.2173 18.7178 36.788 19.0198C37.3587 19.3218 37.2388 19.8165 36.788 19.9522C36.3372 20.0923 35.7666 19.7333 35.0137 19.6502C34.2608 19.567 34.1409 19.6239 34.1409 19.6239C34.1409 19.6239 33.5222 21.0991 31.8774 21.121C30.0694 21.1428 29.729 20.1929 29.7481 19.2299C29.5419 18.9804 29.1295 19.0198 29.0048 19.3569C28.8801 19.6808 29.1583 20.2455 29.6187 20.7357C29.8632 20.9108 30.079 21.0991 30.2325 21.2742C30.6209 21.7119 30.2325 22.3992 29.6618 21.8213C29.0911 21.2435 27.8395 20.3024 26.5783 20.0179C24.3627 19.5232 21.8882 19.2431 21.1976 19.405C21.1976 19.405 20.5934 19.5101 19.9844 19.9741C19.4904 20.4074 19.3274 20.9984 18.6224 21.7382C17.5722 22.8369 15.8842 22.6443 14.4743 22.8632C13.0596 23.082 12.5273 24.0319 12.9109 25.3889C13.1459 26.2206 13.7645 26.8116 13.7645 26.8116C15.2991 27.9278 17.2029 28.5494 17.6106 28.0548C17.6873 27.9585 17.7209 27.8534 17.7209 27.7396C17.5722 27.1486 16.5459 24.8943 18.5313 24.1282C20.5167 23.3578 21.236 23.3578 22.9816 23.0295C24.7272 22.7012 27.0147 22.2591 28.0937 22.316C29.1775 22.3685 30.0167 22.7537 30.5586 22.5349C31.1005 22.316 32.002 22.5349 32.3617 22.316C32.7214 22.0971 33.2057 21.7644 34.9465 21.7644C36.6873 21.7644 38.6727 22.1496 39.2146 21.655C39.7565 21.1604 39.0323 21.2173 38.313 21.1078C37.5937 20.9984 37.5313 20.066 38.9172 19.7377C40.2984 19.405 39.8812 18.2538 38.5576 18.2538C37.234 18.2538 36.2126 17.8116 34.3471 17.4833C32.4816 17.155 32.9036 16.8267 31.3978 16.7698C29.892 16.7129 30.4339 15.728 32.5392 15.728C34.6444 15.728 36.7497 15.728 38.6727 14.7387C40.5957 13.7494 40.2984 12.6551 40.7204 11.9415C41.1424 11.228 42.3413 10.8997 43.3675 11.0092C44.389 11.1186 46.8587 11.2849 49.6209 10.7334C52.388 10.1862 52.8675 10.0199 53.8314 9.58213C54.7954 9.14439 55.5147 8.86861 55.3372 9.91043C55.1694 10.8822 54.6899 11.6132 53.3183 12.7251L52.9874 12.9877L52.786 13.1497L50.0669 15.3121C49.3044 15.9206 49.6257 18.7791 54.9776 20.6745C56.9006 21.353 57.6199 20.4381 58.1043 24.7367C58.1139 24.833 58.1379 24.9249 58.181 25.0212C58.2913 25.958 58.3489 26.9079 58.3489 27.8665C58.3489 42.452 45.3961 54.271 29.4172 54.271C13.4384 54.271 0.5 42.4433 0.5 27.8578C0.5 13.2723 13.4528 1.4533 29.4268 1.4533C29.4268 1.4533 31.3642 1.44454 32.1411 1.4533C34.5533 1.47081 34.9417 0 34.9417 0L36.0015 0.131322C36.0015 0.131322 36.1454 0.879858 35.9536 2.50825C35.546 5.95326 32.3617 7.8837 28.9665 7.82679H28.3958C15.2416 7.82679 4.58102 17.5578 4.58102 29.565C4.58102 41.5722 15.1121 51.1849 28.1512 51.3031C29.729 51.1499 31.4458 50.6728 32.7837 49.4953C33.8292 48.4053 34.1073 47.114 33.2777 46.0853C32.7885 45.4856 31.9205 45.1004 30.8559 45.2667C29.9208 46.0021 28.837 47.2759 27.6573 48.611C26.9331 49.434 25.9692 49.9899 24.6457 49.771C23.3221 49.5522 21.4039 48.7205 20.7421 48.0639C20.0803 47.4072 19.8405 47.1315 18.7567 45.9758C17.6729 44.8202 16.7713 42.4608 17.0735 41.9705C17.3756 41.4759 17.7353 41.4759 19.1164 42.4083C20.4975 43.3406 20.6222 43.2312 20.9818 42.4652C21.3415 41.6947 20.5263 41.9705 21.0682 40.7624C21.6101 39.5542 20.8859 37.4136 20.8859 36.2624C20.8859 35.7677 20.8284 35.1899 20.7421 34.7084C20.7229 33.5747 22.1472 33.0538 22.8233 32.9662C23.0056 32.9443 23.1111 33.0494 23.1638 33.1369C23.3604 34.6778 23.1207 38.206 22.6891 39.3922C22.1472 40.8762 22.4541 41.7035 22.4205 42.2463C22.3582 43.2531 21.8211 43.4545 21.3991 43.8397C20.9771 44.2249 21.2792 44.9909 21.8786 45.2142C22.4829 45.433 24.4634 46.2604 24.1661 45.7088C23.864 45.1616 23.4755 44.2555 23.4755 43.542C23.4755 42.8285 24.0798 42.9948 25.1012 43.8178C26.0699 44.597 27.1777 43.844 28.1368 43.6821C28.391 43.6383 28.8801 43.38 28.8849 42.6315C28.8849 42.3207 29.5707 41.7385 29.9543 41.8129C30.338 41.8917 30.8511 41.1782 31.3499 40.6573C33.1961 38.7531 32.7933 38.0309 31.3499 35.0061C30.6065 33.8023 29.94 32.813 27.4463 32.0382C25.6959 31.491 23.8736 31.4954 22.5692 31.7755C22.4013 31.7668 22.2191 31.7843 22.0321 31.8456C21.3079 32.0907 20.4352 32.813 20.1714 34.3276C20.0179 35.168 19.9604 35.9034 19.9316 36.3149C19.8693 37.1379 19.2698 37.0284 18.7279 35.9866C18.186 34.9448 17.8264 32.9137 17.8839 31.8675C17.9463 30.8257 17.2221 30.8257 16.3829 30.4404C15.5389 30.0552 15.1217 30.3835 14.9394 29.7795C14.7572 29.1798 14.0475 29.5518 13.6255 29.2367M11.9038 25.1525C11.7983 24.6842 11.736 23.4235 11.055 22.9376C10.3741 22.4561 9.88492 22.513 9.94726 23.3841C10.0096 24.2552 10.1583 24.8418 10.7961 25.2313C11.4339 25.6209 12.0093 25.6209 11.9038 25.1569M11.4195 20.0354C11.4195 20.0354 11.1509 20.3943 11.3572 20.8321C11.5682 21.2742 11.8415 21.0247 12.0813 21.4099C12.3211 21.7951 12.0813 22.1496 12.3211 22.3685C12.5608 22.5874 12.863 22.2591 12.9828 21.9308C13.1027 21.6025 13.9132 21.8213 14.5462 22.0402C15.1744 22.2591 15.5389 21.9045 15.5053 21.2173C15.4765 20.53 14.8435 20.066 13.7933 19.7377C12.7431 19.405 11.8703 19.3788 11.4195 20.0397M39.6989 24.2771C40.001 24.1414 40.2984 24.0451 40.5573 24.0188C41.6987 23.9094 43.3867 24.0188 43.3244 22.8675V22.7406C43.0414 22.4342 42.3413 22.281 41.1616 22.5349C39.1187 22.9726 37.6129 23.2484 35.2678 23.1915C32.9228 23.1346 31.839 23.0295 30.5154 23.7955C29.1918 24.566 24.9238 24.8943 23.1159 25.6078C21.3127 26.3213 22.2719 27.2012 23.7153 27.2012C25.1588 27.2012 30.9326 26.1024 34.841 25.2795C36.9894 24.8286 38.5959 24.474 39.6941 24.2727" fill="#204A8F"/>
</svg>
