<svg width="390" height="63" viewBox="0 0 390 63" fill="none" xmlns="http://www.w3.org/2000/svg">
    <path d="M0 0H390V63H0V0Z" fill="#3A8DDE"/>
    <path d="M53.1769 28.5V20.1H56.9089C57.3809 20.1 57.8089 20.216 58.1929 20.448C58.5769 20.672 58.8769 20.988 59.0929 21.396C59.3169 21.804 59.4289 22.268 59.4289 22.788C59.4289 23.308 59.3169 23.776 59.0929 24.192C58.8769 24.6 58.5769 24.92 58.1929 25.152C57.8089 25.376 57.3809 25.488 56.9089 25.488H54.4369V28.5H53.1769ZM56.8729 24.288C57.2329 24.288 57.5369 24.152 57.7849 23.88C58.0409 23.6 58.1689 23.236 58.1689 22.788C58.1689 22.34 58.0449 21.98 57.7969 21.708C57.5489 21.436 57.2409 21.3 56.8729 21.3H54.4369V24.288H56.8729ZM66.3959 28.5H60.8879V20.1H66.3959V21.264H62.1479V23.712H66.1559V24.852H62.1479V27.336H66.3959V28.5ZM71.338 25.416L74.434 28.5H72.862L69.814 25.428H69.226V28.5H67.966V20.1H71.722C72.194 20.1 72.618 20.216 72.994 20.448C73.378 20.672 73.678 20.988 73.894 21.396C74.118 21.804 74.23 22.264 74.23 22.776C74.23 23.28 74.122 23.732 73.906 24.132C73.69 24.532 73.398 24.848 73.03 25.08C72.662 25.304 72.262 25.416 71.83 25.416H71.338ZM69.226 24.264H71.686C72.046 24.264 72.35 24.128 72.598 23.856C72.846 23.576 72.97 23.216 72.97 22.776C72.97 22.336 72.846 21.976 72.598 21.696C72.35 21.416 72.046 21.276 71.686 21.276H69.226V24.264ZM77.0658 28.5H75.8058V20.1H81.2178V21.264H77.0658V23.724H80.9538V24.864H77.0658V28.5ZM88.1693 28.5H82.6613V20.1H88.1693V21.264H83.9213V23.712H87.9293V24.852H83.9213V27.336H88.1693V28.5ZM93.4114 28.62C92.6674 28.62 91.9874 28.436 91.3714 28.068C90.7634 27.7 90.2794 27.188 89.9194 26.532C89.5594 25.876 89.3794 25.132 89.3794 24.3C89.3794 23.468 89.5594 22.724 89.9194 22.068C90.2794 21.412 90.7634 20.9 91.3714 20.532C91.9874 20.164 92.6674 19.98 93.4114 19.98C94.0514 19.98 94.6314 20.112 95.1514 20.376C95.6714 20.632 96.1034 20.984 96.4474 21.432C96.7994 21.88 97.0434 22.38 97.1794 22.932H95.8714C95.6954 22.412 95.3874 21.992 94.9474 21.672C94.5154 21.344 94.0034 21.18 93.4114 21.18C92.9074 21.18 92.4434 21.312 92.0194 21.576C91.5954 21.832 91.2594 22.2 91.0114 22.68C90.7634 23.152 90.6394 23.692 90.6394 24.3C90.6394 24.908 90.7634 25.452 91.0114 25.932C91.2594 26.404 91.5954 26.772 92.0194 27.036C92.4434 27.292 92.9074 27.42 93.4114 27.42C94.0194 27.42 94.5394 27.256 94.9714 26.928C95.4034 26.592 95.7034 26.152 95.8714 25.608H97.1794C97.0434 26.176 96.8034 26.688 96.4594 27.144C96.1154 27.6 95.6834 27.96 95.1634 28.224C94.6434 28.488 94.0594 28.62 93.4114 28.62ZM101.523 28.5H100.263V21.3H97.6227V20.1H104.151V21.3H101.523V28.5ZM54.4369 43.5H53.1769V35.1H55.2889L57.5929 41.76H57.8329L60.1249 35.1H62.2489V43.5H60.9889V36.984H60.7489L58.4809 43.5H56.9329L54.6769 36.984H54.4369V43.5ZM71.1671 43.5H69.8111L69.0911 41.484H65.2271L64.5071 43.5H63.1391L66.2351 35.1H68.0831L71.1671 43.5ZM67.0391 36.444L65.6351 40.344H68.6831L67.2791 36.444H67.0391ZM74.6164 43.5H73.3564V36.3H70.7164V35.1H77.2444V36.3H74.6164V43.5ZM81.8802 43.62C81.1362 43.62 80.4562 43.436 79.8402 43.068C79.2322 42.7 78.7482 42.188 78.3882 41.532C78.0282 40.876 77.8482 40.132 77.8482 39.3C77.8482 38.468 78.0282 37.724 78.3882 37.068C78.7482 36.412 79.2322 35.9 79.8402 35.532C80.4562 35.164 81.1362 34.98 81.8802 34.98C82.5202 34.98 83.1002 35.112 83.6202 35.376C84.1402 35.632 84.5722 35.984 84.9162 36.432C85.2682 36.88 85.5122 37.38 85.6482 37.932H84.3402C84.1642 37.412 83.8562 36.992 83.4162 36.672C82.9842 36.344 82.4722 36.18 81.8802 36.18C81.3762 36.18 80.9122 36.312 80.4882 36.576C80.0642 36.832 79.7282 37.2 79.4802 37.68C79.2322 38.152 79.1082 38.692 79.1082 39.3C79.1082 39.908 79.2322 40.452 79.4802 40.932C79.7282 41.404 80.0642 41.772 80.4882 42.036C80.9122 42.292 81.3762 42.42 81.8802 42.42C82.4882 42.42 83.0082 42.256 83.4402 41.928C83.8722 41.592 84.1722 41.152 84.3402 40.608H85.6482C85.5122 41.176 85.2722 41.688 84.9282 42.144C84.5842 42.6 84.1522 42.96 83.6322 43.224C83.1122 43.488 82.5282 43.62 81.8802 43.62ZM88.2338 43.5H86.9738V35.1H88.2338V38.652H92.4578V35.1H93.7178V43.5H92.4578V39.888H88.2338V43.5Z" fill="white"/>
    <g clip-path="url(#clip0_13010_25167)">
        <path d="M37.4145 22.8166H39.9407C40.3082 22.8166 40.609 22.5225 40.609 22.1549C40.609 21.7874 40.3082 21.4933 39.9407 21.4933H35.8774C35.5098 21.4933 35.209 21.7874 35.209 22.1549V26.1782C35.209 26.539 35.5098 26.8398 35.8774 26.8398C36.2449 26.8398 36.5457 26.5457 36.5457 26.1782V23.8391C39.2256 25.2292 40.9298 27.9692 40.9298 31.0033C40.9298 35.461 37.2674 39.0899 32.763 39.0899C32.3955 39.0899 32.0947 39.3839 32.0947 39.7515C32.0947 40.1191 32.3955 40.4131 32.763 40.4131C38.0026 40.4131 42.2664 36.1961 42.2664 31.01C42.2664 27.5816 40.3951 24.474 37.4211 22.8166H37.4145Z" fill="white"/>
        <path d="M29.7489 35.1602C29.3813 35.1602 29.0806 35.4543 29.0806 35.8218V38.2478C29.0806 38.2478 29.0605 38.2278 29.0405 38.2211C26.287 36.831 24.5762 34.0709 24.5762 31.01C24.5829 26.5457 28.2519 22.9235 32.7563 22.9235C33.1238 22.9235 33.4246 22.6294 33.4246 22.2619C33.4246 21.8943 33.1238 21.6003 32.7563 21.6003C27.5167 21.6069 23.2529 25.824 23.2529 31.01C23.2529 34.4251 25.0908 37.5127 28.0714 39.1901H25.6923C25.3247 39.1901 25.0239 39.4842 25.0239 39.8517C25.0239 40.2193 25.3247 40.5134 25.6923 40.5134H29.7556C30.1231 40.5134 30.4239 40.2193 30.4239 39.8517V35.8285C30.4239 35.4676 30.1231 35.1669 29.7556 35.1669L29.7489 35.1602Z" fill="white"/>
    </g>
    <g clip-path="url(#clip1_13010_25167)">
        <path d="M146.798 35.8792C146.728 35.8159 146.636 35.7877 146.538 35.7877C146.446 35.7877 146.348 35.7948 146.27 35.7948H146.102C145.869 35.7948 145.743 35.9425 145.736 36.1324L145.539 41.1131C145.532 41.3101 145.687 41.4719 145.884 41.4859C146.01 41.4859 146.137 41.4859 146.277 41.4859H146.524C146.65 41.4789 146.777 41.4719 146.897 41.4648C146.995 41.4648 147.079 41.4156 147.143 41.3452C147.206 41.2749 147.241 41.1834 147.234 41.0849L146.925 36.1113C146.925 36.0199 146.875 35.9284 146.805 35.8651L146.798 35.8792Z" fill="white"/>
        <path d="M143.084 34.3878C143.02 34.3174 142.929 34.2752 142.837 34.2682C142.739 34.2612 142.648 34.2963 142.577 34.3596L138.792 37.659C138.722 37.7223 138.68 37.8067 138.673 37.9052C138.673 37.9966 138.701 38.0951 138.764 38.1655C138.989 38.4117 139.229 38.6579 139.475 38.883C139.538 38.9463 139.63 38.9745 139.721 38.9745H139.735C139.834 38.9745 139.918 38.9323 139.988 38.8619L143.414 35.1968C143.548 35.0491 143.541 34.8239 143.393 34.6903C143.288 34.5918 143.189 34.4933 143.091 34.3878H143.084Z" fill="white"/>
        <path d="M141.916 31.9467C141.986 31.8764 142.021 31.7849 142.021 31.6934V31.6231C142.021 31.5035 142.021 31.3769 142.036 31.2573C142.05 31.0603 141.909 30.8915 141.705 30.8704L136.675 30.4413C136.584 30.4272 136.485 30.4624 136.415 30.5257C136.344 30.589 136.295 30.6734 136.288 30.7649C136.26 31.0533 136.253 31.3417 136.253 31.6512V31.7497C136.253 31.8412 136.295 31.9326 136.365 32.003C136.436 32.0663 136.52 32.1015 136.619 32.1015L141.663 32.0452C141.761 32.0452 141.853 32.003 141.916 31.9397V31.9467Z" fill="white"/>
        <path d="M156.19 30.4975C156.175 30.4061 156.133 30.3146 156.056 30.2583C155.978 30.2021 155.887 30.1739 155.789 30.181L150.773 30.7437C150.674 30.7578 150.59 30.8 150.534 30.8774C150.477 30.9548 150.449 31.0462 150.456 31.1377C150.47 31.2784 150.477 31.4191 150.484 31.5598C150.484 31.6512 150.526 31.7427 150.59 31.813C150.66 31.8764 150.745 31.9115 150.843 31.9115L155.887 31.8553C155.986 31.8553 156.077 31.813 156.14 31.7497C156.204 31.6794 156.246 31.5879 156.246 31.4965C156.246 31.1658 156.218 30.8282 156.182 30.4975H156.19Z" fill="white"/>
        <path d="M150.013 34.2541C149.943 34.1908 149.844 34.1627 149.753 34.1697C149.654 34.1768 149.57 34.226 149.506 34.2964C149.415 34.4019 149.317 34.5074 149.211 34.6059C149.141 34.6692 149.105 34.7607 149.105 34.8591C149.105 34.9506 149.141 35.042 149.211 35.1124L152.735 38.6861C152.799 38.7564 152.89 38.7916 152.989 38.7916C153.08 38.7916 153.172 38.7564 153.242 38.6931C153.481 38.461 153.713 38.2147 153.931 37.9615C153.995 37.8911 154.023 37.7927 154.016 37.7012C154.009 37.6098 153.959 37.5183 153.889 37.462L150.02 34.2612L150.013 34.2541Z" fill="white"/>
        <path d="M149.486 29.0132C149.676 29.0132 149.858 28.9358 149.992 28.8092L153.369 25.4958C153.502 25.3621 153.58 25.1792 153.58 24.9893C153.58 24.7993 153.502 24.6164 153.369 24.4828C151.441 22.5623 148.859 21.5 146.109 21.5C143.358 21.5 140.812 22.5552 138.877 24.4617C138.596 24.7431 138.596 25.1933 138.877 25.4676L142.24 28.7881C142.507 29.0554 142.985 29.0554 143.26 28.7881C144.02 28.0353 145.033 27.6203 146.116 27.6203C147.199 27.6203 148.219 28.0424 148.979 28.8021C149.113 28.9358 149.296 29.0132 149.486 29.0132ZM146.109 26.1993C144.892 26.1993 143.731 26.5932 142.781 27.3108L140.425 24.9822C142.015 23.6456 144.005 22.921 146.109 22.921C148.212 22.921 150.231 23.6597 151.821 25.0033L149.457 27.3248C148.501 26.5932 147.34 26.1993 146.109 26.1993Z" fill="white"/>
    </g>
    <path d="M166.437 28.5H165.177V20.1H166.437V23.652H170.661V20.1H171.921V28.5H170.661V24.888H166.437V28.5ZM175.027 28.5H173.767V20.1H175.027V28.5ZM180.82 24.144H184.372V28.5H183.376L183.256 27.408H183.196C182.94 27.728 182.576 28.012 182.104 28.26C181.64 28.5 181.124 28.62 180.556 28.62C179.812 28.62 179.132 28.436 178.516 28.068C177.9 27.7 177.412 27.188 177.052 26.532C176.692 25.876 176.512 25.132 176.512 24.3C176.512 23.46 176.692 22.712 177.052 22.056C177.412 21.4 177.9 20.892 178.516 20.532C179.132 20.164 179.812 19.98 180.556 19.98C181.156 19.98 181.712 20.104 182.224 20.352C182.736 20.592 183.168 20.92 183.52 21.336C183.88 21.752 184.14 22.216 184.3 22.728H182.992C182.784 22.264 182.456 21.892 182.008 21.612C181.568 21.324 181.084 21.18 180.556 21.18C180.044 21.18 179.576 21.312 179.152 21.576C178.728 21.832 178.392 22.2 178.144 22.68C177.896 23.152 177.772 23.692 177.772 24.3C177.772 24.908 177.896 25.452 178.144 25.932C178.392 26.404 178.728 26.772 179.152 27.036C179.576 27.292 180.044 27.42 180.556 27.42C181.012 27.42 181.432 27.316 181.816 27.108C182.2 26.892 182.504 26.616 182.728 26.28C182.96 25.936 183.084 25.584 183.1 25.224L183.112 25.128H180.82V24.144ZM187.331 28.5H186.071V20.1H187.331V23.652H191.555V20.1H192.815V28.5H191.555V24.888H187.331V28.5ZM170.685 43.5H165.177V35.1H170.685V36.264H166.437V38.712H170.445V39.852H166.437V42.336H170.685V43.5ZM173.515 43.5H172.255V35.1H177.667V36.264H173.515V38.724H177.403V39.864H173.515V43.5ZM180.371 43.5H179.111V35.1H184.523V36.264H180.371V38.724H184.259V39.864H180.371V43.5ZM187.226 43.5H185.966V35.1H187.226V43.5ZM192.743 43.62C191.999 43.62 191.319 43.436 190.703 43.068C190.095 42.7 189.611 42.188 189.251 41.532C188.891 40.876 188.711 40.132 188.711 39.3C188.711 38.468 188.891 37.724 189.251 37.068C189.611 36.412 190.095 35.9 190.703 35.532C191.319 35.164 191.999 34.98 192.743 34.98C193.383 34.98 193.963 35.112 194.483 35.376C195.003 35.632 195.435 35.984 195.779 36.432C196.131 36.88 196.375 37.38 196.511 37.932H195.203C195.027 37.412 194.719 36.992 194.279 36.672C193.847 36.344 193.335 36.18 192.743 36.18C192.239 36.18 191.775 36.312 191.351 36.576C190.927 36.832 190.591 37.2 190.343 37.68C190.095 38.152 189.971 38.692 189.971 39.3C189.971 39.908 190.095 40.452 190.343 40.932C190.591 41.404 190.927 41.772 191.351 42.036C191.775 42.292 192.239 42.42 192.743 42.42C193.351 42.42 193.871 42.256 194.303 41.928C194.735 41.592 195.035 41.152 195.203 40.608H196.511C196.375 41.176 196.135 41.688 195.791 42.144C195.447 42.6 195.015 42.96 194.495 43.224C193.975 43.488 193.391 43.62 192.743 43.62ZM199.097 43.5H197.837V35.1H199.097V43.5ZM206.451 43.5H200.943V35.1H206.451V36.264H202.203V38.712H206.211V39.852H202.203V42.336H206.451V43.5ZM209.281 43.5H208.021V35.1H209.869L213.289 41.664H213.529V35.1H214.789V43.5H212.941L209.521 36.936H209.281V43.5ZM220.306 43.62C219.562 43.62 218.882 43.436 218.266 43.068C217.658 42.7 217.174 42.188 216.814 41.532C216.454 40.876 216.274 40.132 216.274 39.3C216.274 38.468 216.454 37.724 216.814 37.068C217.174 36.412 217.658 35.9 218.266 35.532C218.882 35.164 219.562 34.98 220.306 34.98C220.946 34.98 221.526 35.112 222.046 35.376C222.566 35.632 222.998 35.984 223.342 36.432C223.694 36.88 223.938 37.38 224.074 37.932H222.766C222.59 37.412 222.282 36.992 221.842 36.672C221.41 36.344 220.898 36.18 220.306 36.18C219.802 36.18 219.338 36.312 218.914 36.576C218.49 36.832 218.154 37.2 217.906 37.68C217.658 38.152 217.534 38.692 217.534 39.3C217.534 39.908 217.658 40.452 217.906 40.932C218.154 41.404 218.49 41.772 218.914 42.036C219.338 42.292 219.802 42.42 220.306 42.42C220.914 42.42 221.434 42.256 221.866 41.928C222.298 41.592 222.598 41.152 222.766 40.608H224.074C223.938 41.176 223.698 41.688 223.354 42.144C223.01 42.6 222.578 42.96 222.058 43.224C221.538 43.488 220.954 43.62 220.306 43.62ZM228.501 43.5H227.241V40.464L224.181 35.1H225.561L227.757 39H227.997L230.193 35.1H231.561L228.501 40.464V43.5Z" fill="white"/>
    <path d="M304.702 28.5H303.442V20.1H304.702V28.5ZM307.808 28.5H306.548V20.1H308.396L311.816 26.664H312.056V20.1H313.316V28.5H311.468L308.048 21.936H307.808V28.5ZM318.833 28.62C318.089 28.62 317.409 28.436 316.793 28.068C316.185 27.7 315.701 27.188 315.341 26.532C314.981 25.876 314.801 25.132 314.801 24.3C314.801 23.468 314.981 22.724 315.341 22.068C315.701 21.412 316.185 20.9 316.793 20.532C317.409 20.164 318.089 19.98 318.833 19.98C319.473 19.98 320.053 20.112 320.573 20.376C321.093 20.632 321.525 20.984 321.869 21.432C322.221 21.88 322.465 22.38 322.601 22.932H321.293C321.117 22.412 320.809 21.992 320.369 21.672C319.937 21.344 319.425 21.18 318.833 21.18C318.329 21.18 317.865 21.312 317.441 21.576C317.017 21.832 316.681 22.2 316.433 22.68C316.185 23.152 316.061 23.692 316.061 24.3C316.061 24.908 316.185 25.452 316.433 25.932C316.681 26.404 317.017 26.772 317.441 27.036C317.865 27.292 318.329 27.42 318.833 27.42C319.441 27.42 319.961 27.256 320.393 26.928C320.825 26.592 321.125 26.152 321.293 25.608H322.601C322.465 26.176 322.225 26.688 321.881 27.144C321.537 27.6 321.105 27.96 320.585 28.224C320.065 28.488 319.481 28.62 318.833 28.62ZM327.298 25.416L330.394 28.5H328.822L325.774 25.428H325.186V28.5H323.926V20.1H327.682C328.154 20.1 328.578 20.216 328.954 20.448C329.338 20.672 329.638 20.988 329.854 21.396C330.078 21.804 330.19 22.264 330.19 22.776C330.19 23.28 330.082 23.732 329.866 24.132C329.65 24.532 329.358 24.848 328.99 25.08C328.622 25.304 328.222 25.416 327.79 25.416H327.298ZM325.186 24.264H327.646C328.006 24.264 328.31 24.128 328.558 23.856C328.806 23.576 328.93 23.216 328.93 22.776C328.93 22.336 328.806 21.976 328.558 21.696C328.31 21.416 328.006 21.276 327.646 21.276H325.186V24.264ZM337.274 28.5H331.766V20.1H337.274V21.264H333.026V23.712H337.034V24.852H333.026V27.336H337.274V28.5ZM345.924 28.5H344.568L343.848 26.484H339.984L339.264 28.5H337.896L340.992 20.1H342.84L345.924 28.5ZM341.796 21.444L340.392 25.344H343.44L342.036 21.444H341.796ZM349.669 28.62C349.005 28.62 348.425 28.5 347.929 28.26C347.433 28.02 347.053 27.696 346.789 27.288C346.525 26.88 346.393 26.432 346.393 25.944H347.653C347.653 26.376 347.829 26.74 348.181 27.036C348.541 27.332 349.037 27.48 349.669 27.48C350.309 27.48 350.785 27.36 351.097 27.12C351.409 26.872 351.565 26.552 351.565 26.16C351.565 25.504 351.109 25.096 350.197 24.936L348.673 24.648C347.273 24.392 346.573 23.656 346.573 22.44C346.573 21.968 346.693 21.548 346.933 21.18C347.173 20.804 347.517 20.512 347.965 20.304C348.413 20.088 348.941 19.98 349.549 19.98C350.205 19.98 350.773 20.096 351.253 20.328C351.741 20.56 352.113 20.88 352.369 21.288C352.633 21.696 352.765 22.152 352.765 22.656H351.505C351.505 22.376 351.425 22.12 351.265 21.888C351.113 21.656 350.889 21.472 350.593 21.336C350.297 21.192 349.949 21.12 349.549 21.12C349.005 21.12 348.581 21.244 348.277 21.492C347.981 21.74 347.833 22.056 347.833 22.44C347.833 23.048 348.257 23.432 349.105 23.592L350.425 23.832C351.265 23.984 351.873 24.248 352.249 24.624C352.633 24.992 352.825 25.504 352.825 26.16C352.825 26.632 352.701 27.056 352.453 27.432C352.213 27.8 351.853 28.092 351.373 28.308C350.901 28.516 350.333 28.62 349.669 28.62ZM359.821 28.5H354.313V20.1H359.821V21.264H355.573V23.712H359.581V24.852H355.573V27.336H359.821V28.5ZM361.391 28.5V20.1H364.307C365.067 20.1 365.755 20.28 366.371 20.64C366.987 21 367.467 21.5 367.811 22.14C368.163 22.78 368.339 23.5 368.339 24.3C368.339 25.1 368.163 25.82 367.811 26.46C367.467 27.1 366.987 27.6 366.371 27.96C365.755 28.32 365.067 28.5 364.307 28.5H361.391ZM364.307 27.3C364.827 27.3 365.299 27.176 365.723 26.928C366.147 26.672 366.479 26.316 366.719 25.86C366.959 25.404 367.079 24.884 367.079 24.3C367.079 23.716 366.959 23.196 366.719 22.74C366.479 22.284 366.147 21.932 365.723 21.684C365.299 21.428 364.827 21.3 364.307 21.3H362.651V27.3H364.307ZM303.442 43.5V35.1H306.358C307.118 35.1 307.806 35.28 308.422 35.64C309.038 36 309.518 36.5 309.862 37.14C310.214 37.78 310.39 38.5 310.39 39.3C310.39 40.1 310.214 40.82 309.862 41.46C309.518 42.1 309.038 42.6 308.422 42.96C307.806 43.32 307.118 43.5 306.358 43.5H303.442ZM306.358 42.3C306.878 42.3 307.35 42.176 307.774 41.928C308.198 41.672 308.53 41.316 308.77 40.86C309.01 40.404 309.13 39.884 309.13 39.3C309.13 38.716 309.01 38.196 308.77 37.74C308.53 37.284 308.198 36.932 307.774 36.684C307.35 36.428 306.878 36.3 306.358 36.3H304.702V42.3H306.358ZM315.156 43.62C314.508 43.62 313.928 43.476 313.416 43.188C312.904 42.9 312.5 42.492 312.204 41.964C311.916 41.436 311.772 40.828 311.772 40.14V35.1H313.032V40.14C313.032 40.58 313.124 40.976 313.308 41.328C313.5 41.672 313.756 41.94 314.076 42.132C314.404 42.324 314.764 42.42 315.156 42.42C315.548 42.42 315.904 42.324 316.224 42.132C316.552 41.94 316.808 41.672 316.992 41.328C317.176 40.976 317.268 40.58 317.268 40.14V35.1H318.528V40.14C318.528 40.828 318.384 41.436 318.096 41.964C317.808 42.492 317.408 42.9 316.896 43.188C316.384 43.476 315.804 43.62 315.156 43.62ZM323.642 40.416L326.738 43.5H325.166L322.118 40.428H321.53V43.5H320.27V35.1H324.026C324.498 35.1 324.922 35.216 325.298 35.448C325.682 35.672 325.982 35.988 326.198 36.396C326.422 36.804 326.534 37.264 326.534 37.776C326.534 38.28 326.426 38.732 326.21 39.132C325.994 39.532 325.702 39.848 325.334 40.08C324.966 40.304 324.566 40.416 324.134 40.416H323.642ZM321.53 39.264H323.99C324.35 39.264 324.654 39.128 324.902 38.856C325.15 38.576 325.274 38.216 325.274 37.776C325.274 37.336 325.15 36.976 324.902 36.696C324.654 36.416 324.35 36.276 323.99 36.276H321.53V39.264ZM335.014 43.5H333.658L332.938 41.484H329.074L328.354 43.5H326.986L330.082 35.1H331.93L335.014 43.5ZM330.886 36.444L329.482 40.344H332.53L331.126 36.444H330.886ZM335.926 43.5V35.1H339.67C340.11 35.1 340.506 35.204 340.858 35.412C341.218 35.612 341.498 35.892 341.698 36.252C341.906 36.604 342.01 37 342.01 37.44C342.01 37.856 341.918 38.224 341.734 38.544C341.55 38.864 341.342 39.096 341.11 39.24V39.3C341.374 39.428 341.61 39.66 341.818 39.996C342.026 40.324 342.13 40.712 342.13 41.16C342.13 41.6 342.026 42 341.818 42.36C341.618 42.712 341.338 42.992 340.978 43.2C340.626 43.4 340.23 43.5 339.79 43.5H335.926ZM339.586 38.748C339.906 38.748 340.178 38.628 340.402 38.388C340.634 38.148 340.75 37.852 340.75 37.5C340.75 37.14 340.634 36.84 340.402 36.6C340.178 36.36 339.906 36.24 339.586 36.24H337.186V38.748H339.586ZM339.706 42.36C340.026 42.36 340.298 42.24 340.522 42C340.754 41.76 340.87 41.46 340.87 41.1C340.87 40.748 340.754 40.452 340.522 40.212C340.298 39.972 340.026 39.852 339.706 39.852H337.186V42.36H339.706ZM344.979 43.5H343.719V35.1H344.979V43.5ZM352.153 43.5H346.825V35.1H348.085V42.3H352.153V43.5ZM354.554 43.5H353.294V35.1H354.554V43.5ZM359.651 43.5H358.391V36.3H355.751V35.1H362.279V36.3H359.651V43.5ZM366.813 43.5H365.553V40.464L362.493 35.1H363.873L366.069 39H366.309L368.505 35.1H369.873L366.813 40.464V43.5Z" fill="white"/>
    <g clip-path="url(#clip2_13010_25167)">
        <path d="M284.522 21.5C284.135 21.5 283.818 21.8166 283.818 22.2035C283.818 22.5904 284.135 22.907 284.522 22.907C289.256 22.907 293.111 26.762 293.111 31.4965C293.111 36.2309 289.256 40.086 284.522 40.086C279.787 40.086 275.925 36.238 275.925 31.5035C275.925 31.1166 275.608 30.8 275.222 30.8C274.835 30.8 274.518 31.1166 274.518 31.5035C274.518 37.0188 279.006 41.507 284.522 41.507C290.037 41.507 294.525 37.0188 294.525 31.5035C294.525 25.9882 290.03 21.5 284.522 21.5Z" fill="white"/>
        <path d="M278.957 24.7571C279.105 24.7571 279.253 24.7149 279.379 24.6164C279.555 24.4898 279.731 24.3632 279.914 24.2506C280.244 24.0396 280.343 23.6034 280.132 23.2798C279.921 22.9492 279.492 22.8577 279.161 23.0617C278.95 23.1954 278.739 23.3431 278.535 23.4909C278.226 23.723 278.162 24.1662 278.394 24.4757C278.535 24.6586 278.746 24.7571 278.957 24.7571Z" fill="white"/>
        <path d="M275.482 29.2102C275.559 29.2383 275.629 29.2453 275.707 29.2453C276.002 29.2453 276.277 29.0624 276.375 28.767C276.445 28.563 276.523 28.359 276.607 28.162C276.762 27.8032 276.593 27.3881 276.234 27.2404C275.876 27.0856 275.461 27.2545 275.313 27.6133C275.214 27.8454 275.123 28.0846 275.045 28.3238C274.919 28.6966 275.123 29.0906 275.489 29.2172L275.482 29.2102Z" fill="white"/>
        <path d="M281.236 23.4275C281.377 23.4697 281.532 23.4697 281.68 23.4205C281.884 23.3502 282.088 23.2798 282.299 23.2235C282.672 23.118 282.897 22.7311 282.791 22.3582C282.686 21.9854 282.299 21.7603 281.926 21.8658C281.68 21.9291 281.44 22.0065 281.201 22.0909C280.835 22.2246 280.645 22.6256 280.772 22.9914C280.849 23.2095 281.025 23.3642 281.229 23.4275H281.236Z" fill="white"/>
        <path d="M276.987 26.755C277.205 26.755 277.424 26.6565 277.557 26.4666C277.684 26.2907 277.818 26.1219 277.958 25.9601C278.211 25.6646 278.176 25.2214 277.881 24.9682C277.585 24.7149 277.142 24.7501 276.889 25.0455C276.727 25.2355 276.565 25.4395 276.418 25.6435C276.192 25.9601 276.263 26.3962 276.572 26.6284C276.699 26.7198 276.84 26.762 276.987 26.762V26.755Z" fill="white"/>
        <path d="M280.005 33.8813C280.132 34.1205 280.378 34.2541 280.631 34.2541C280.744 34.2541 280.857 34.226 280.962 34.1697L284.852 32.1155C285.084 31.9959 285.225 31.7568 285.225 31.4894V25.7983C285.225 25.4114 284.909 25.0948 284.522 25.0948C284.135 25.0948 283.818 25.4114 283.818 25.7983V31.0744L280.301 32.9245C279.956 33.1074 279.822 33.5295 280.005 33.8742V33.8813Z" fill="white"/>
    </g>
    <defs>
        <clipPath id="clip0_13010_25167">
            <rect width="19" height="19" fill="white" transform="translate(23.2529 21.5)"/>
        </clipPath>
        <clipPath id="clip1_13010_25167">
            <rect width="20" height="20" fill="white" transform="translate(136.253 21.5)"/>
        </clipPath>
        <clipPath id="clip2_13010_25167">
            <rect width="20" height="20" fill="white" transform="translate(274.518 21.5)"/>
        </clipPath>
    </defs>
</svg>
