<svg width="590" height="83" viewBox="0 0 590 83" fill="none" xmlns="http://www.w3.org/2000/svg">
    <path d="M472.329 41.5L453.962 9.48683C450.762 3.90405 444.866 0 439.377 0C433.888 0 205.16 0 205.16 0V83H444.322C444.322 83 458.248 83 462.903 83C468.392 83 474.288 79.096 477.488 73.5132L495.855 41.5H472.329Z" fill="#3A8DDE"/>
    <path d="M486.449 0C481.794 0 467.868 0 467.868 0L469.595 2.84995C469.595 2.84995 474.463 4.15781 477.682 9.79915L495.875 41.5H519.401L501.034 9.48683C497.834 3.90405 491.938 0 486.449 0Z" fill="#3A8DDE"/>
    <path d="M533.521 0C528.866 0 514.941 0 514.941 0L516.667 2.84995C516.667 2.84995 521.535 4.15781 524.755 9.79915L542.947 41.5H566.474L548.106 9.48683C544.906 3.90405 539.01 0 533.521 0Z" fill="#3A8DDE"/>
    <path d="M501.209 73.2011C497.989 78.8229 493.121 80.1503 493.121 80.1503L491.395 83.0002C491.395 83.0002 505.321 83.0002 509.995 83.0002C515.484 83.0002 521.38 79.0962 524.58 73.5134L542.947 41.5002H519.421L501.228 73.2011H501.209Z" fill="#3A8DDE"/>
    <path d="M548.281 73.2011C545.061 78.8229 540.193 80.1503 540.193 80.1503L538.467 83.0002C538.467 83.0002 552.393 83.0002 557.067 83.0002C562.556 83.0002 568.452 79.0962 571.652 73.5134L590 41.5002H566.474L548.281 73.2011Z" fill="#3A8DDE"/>
    <path d="M0 0H211V83H0V0Z" fill="#3A8DDE"/>
    <path d="M337.73 37H336.155V26.5H337.73V37ZM341.612 37H340.037V26.5H342.347L346.622 34.705H346.922V26.5H348.497V37H346.187L341.912 28.795H341.612V37ZM355.393 37.15C354.463 37.15 353.613 36.92 352.843 36.46C352.083 36 351.478 35.36 351.028 34.54C350.578 33.72 350.353 32.79 350.353 31.75C350.353 30.71 350.578 29.78 351.028 28.96C351.478 28.14 352.083 27.5 352.843 27.04C353.613 26.58 354.463 26.35 355.393 26.35C356.193 26.35 356.918 26.515 357.568 26.845C358.218 27.165 358.758 27.605 359.188 28.165C359.628 28.725 359.933 29.35 360.103 30.04H358.468C358.248 29.39 357.863 28.865 357.313 28.465C356.773 28.055 356.133 27.85 355.393 27.85C354.763 27.85 354.183 28.015 353.653 28.345C353.123 28.665 352.703 29.125 352.393 29.725C352.083 30.315 351.928 30.99 351.928 31.75C351.928 32.51 352.083 33.19 352.393 33.79C352.703 34.38 353.123 34.84 353.653 35.17C354.183 35.49 354.763 35.65 355.393 35.65C356.153 35.65 356.803 35.445 357.343 35.035C357.883 34.615 358.258 34.065 358.468 33.385H360.103C359.933 34.095 359.633 34.735 359.203 35.305C358.773 35.875 358.233 36.325 357.583 36.655C356.933 36.985 356.203 37.15 355.393 37.15ZM365.975 33.145L369.845 37H367.88L364.07 33.16H363.335V37H361.76V26.5H366.455C367.045 26.5 367.575 26.645 368.045 26.935C368.525 27.215 368.9 27.61 369.17 28.12C369.45 28.63 369.59 29.205 369.59 29.845C369.59 30.475 369.455 31.04 369.185 31.54C368.915 32.04 368.55 32.435 368.09 32.725C367.63 33.005 367.13 33.145 366.59 33.145H365.975ZM363.335 31.705H366.41C366.86 31.705 367.24 31.535 367.55 31.195C367.86 30.845 368.015 30.395 368.015 29.845C368.015 29.295 367.86 28.845 367.55 28.495C367.24 28.145 366.86 27.97 366.41 27.97H363.335V31.705ZM378.445 37H371.56V26.5H378.445V27.955H373.135V31.015H378.145V32.44H373.135V35.545H378.445V37ZM389.258 37H387.563L386.663 34.48H381.833L380.933 37H379.223L383.093 26.5H385.403L389.258 37ZM384.098 28.18L382.343 33.055H386.153L384.398 28.18H384.098ZM393.938 37.15C393.108 37.15 392.383 37 391.763 36.7C391.143 36.4 390.668 35.995 390.338 35.485C390.008 34.975 389.843 34.415 389.843 33.805H391.418C391.418 34.345 391.638 34.8 392.078 35.17C392.528 35.54 393.148 35.725 393.938 35.725C394.738 35.725 395.333 35.575 395.723 35.275C396.113 34.965 396.308 34.565 396.308 34.075C396.308 33.255 395.738 32.745 394.598 32.545L392.693 32.185C390.943 31.865 390.068 30.945 390.068 29.425C390.068 28.835 390.218 28.31 390.518 27.85C390.818 27.38 391.248 27.015 391.808 26.755C392.368 26.485 393.028 26.35 393.788 26.35C394.608 26.35 395.318 26.495 395.918 26.785C396.528 27.075 396.993 27.475 397.313 27.985C397.643 28.495 397.808 29.065 397.808 29.695H396.233C396.233 29.345 396.133 29.025 395.933 28.735C395.743 28.445 395.463 28.215 395.093 28.045C394.723 27.865 394.288 27.775 393.788 27.775C393.108 27.775 392.578 27.93 392.198 28.24C391.828 28.55 391.643 28.945 391.643 29.425C391.643 30.185 392.173 30.665 393.233 30.865L394.883 31.165C395.933 31.355 396.693 31.685 397.163 32.155C397.643 32.615 397.883 33.255 397.883 34.075C397.883 34.665 397.728 35.195 397.418 35.665C397.118 36.125 396.668 36.49 396.068 36.76C395.478 37.02 394.768 37.15 393.938 37.15ZM406.629 37H399.744V26.5H406.629V27.955H401.319V31.015H406.329V32.44H401.319V35.545H406.629V37ZM408.592 37V26.5H412.237C413.187 26.5 414.047 26.725 414.817 27.175C415.587 27.625 416.187 28.25 416.617 29.05C417.057 29.85 417.277 30.75 417.277 31.75C417.277 32.75 417.057 33.65 416.617 34.45C416.187 35.25 415.587 35.875 414.817 36.325C414.047 36.775 413.187 37 412.237 37H408.592ZM412.237 35.5C412.887 35.5 413.477 35.345 414.007 35.035C414.537 34.715 414.952 34.27 415.252 33.7C415.552 33.13 415.702 32.48 415.702 31.75C415.702 31.02 415.552 30.37 415.252 29.8C414.952 29.23 414.537 28.79 414.007 28.48C413.477 28.16 412.887 28 412.237 28H410.167V35.5H412.237ZM336.155 56V45.5H339.8C340.75 45.5 341.61 45.725 342.38 46.175C343.15 46.625 343.75 47.25 344.18 48.05C344.62 48.85 344.84 49.75 344.84 50.75C344.84 51.75 344.62 52.65 344.18 53.45C343.75 54.25 343.15 54.875 342.38 55.325C341.61 55.775 340.75 56 339.8 56H336.155ZM339.8 54.5C340.45 54.5 341.04 54.345 341.57 54.035C342.1 53.715 342.515 53.27 342.815 52.7C343.115 52.13 343.265 51.48 343.265 50.75C343.265 50.02 343.115 49.37 342.815 48.8C342.515 48.23 342.1 47.79 341.57 47.48C341.04 47.16 340.45 47 339.8 47H337.73V54.5H339.8ZM350.797 56.15C349.987 56.15 349.262 55.97 348.622 55.61C347.982 55.25 347.477 54.74 347.107 54.08C346.747 53.42 346.567 52.66 346.567 51.8V45.5H348.142V51.8C348.142 52.35 348.257 52.845 348.487 53.285C348.727 53.715 349.047 54.05 349.447 54.29C349.857 54.53 350.307 54.65 350.797 54.65C351.287 54.65 351.732 54.53 352.132 54.29C352.542 54.05 352.862 53.715 353.092 53.285C353.322 52.845 353.437 52.35 353.437 51.8V45.5H355.012V51.8C355.012 52.66 354.832 53.42 354.472 54.08C354.112 54.74 353.612 55.25 352.972 55.61C352.332 55.97 351.607 56.15 350.797 56.15ZM361.405 52.145L365.275 56H363.31L359.5 52.16H358.765V56H357.19V45.5H361.885C362.475 45.5 363.005 45.645 363.475 45.935C363.955 46.215 364.33 46.61 364.6 47.12C364.88 47.63 365.02 48.205 365.02 48.845C365.02 49.475 364.885 50.04 364.615 50.54C364.345 51.04 363.98 51.435 363.52 51.725C363.06 52.005 362.56 52.145 362.02 52.145H361.405ZM358.765 50.705H361.84C362.29 50.705 362.67 50.535 362.98 50.195C363.29 49.845 363.445 49.395 363.445 48.845C363.445 48.295 363.29 47.845 362.98 47.495C362.67 47.145 362.29 46.97 361.84 46.97H358.765V50.705ZM375.62 56H373.925L373.025 53.48H368.195L367.295 56H365.585L369.455 45.5H371.765L375.62 56ZM370.46 47.18L368.705 52.055H372.515L370.76 47.18H370.46ZM376.76 56V45.5H381.44C381.99 45.5 382.485 45.63 382.925 45.89C383.375 46.14 383.725 46.49 383.975 46.94C384.235 47.38 384.365 47.875 384.365 48.425C384.365 48.945 384.25 49.405 384.02 49.805C383.79 50.205 383.53 50.495 383.24 50.675V50.75C383.57 50.91 383.865 51.2 384.125 51.62C384.385 52.03 384.515 52.515 384.515 53.075C384.515 53.625 384.385 54.125 384.125 54.575C383.875 55.015 383.525 55.365 383.075 55.625C382.635 55.875 382.14 56 381.59 56H376.76ZM381.335 50.06C381.735 50.06 382.075 49.91 382.355 49.61C382.645 49.31 382.79 48.94 382.79 48.5C382.79 48.05 382.645 47.675 382.355 47.375C382.075 47.075 381.735 46.925 381.335 46.925H378.335V50.06H381.335ZM381.485 54.575C381.885 54.575 382.225 54.425 382.505 54.125C382.795 53.825 382.94 53.45 382.94 53C382.94 52.56 382.795 52.19 382.505 51.89C382.225 51.59 381.885 51.44 381.485 51.44H378.335V54.575H381.485ZM388.077 56H386.502V45.5H388.077V56ZM397.044 56H390.384V45.5H391.959V54.5H397.044V56ZM400.044 56H398.469V45.5H400.044V56ZM406.416 56H404.841V47H401.541V45.5H409.701V47H406.416V56ZM415.369 56H413.794V52.205L409.969 45.5H411.694L414.439 50.375H414.739L417.484 45.5H419.194L415.369 52.205V56Z" fill="white"/>
    <g clip-path="url(#clip0_12997_25168)">
        <path d="M309.004 31C308.617 31 308.3 31.3166 308.3 31.7035C308.3 32.0904 308.617 32.407 309.004 32.407C313.738 32.407 317.593 36.262 317.593 40.9965C317.593 45.7309 313.738 49.586 309.004 49.586C304.269 49.586 300.407 45.738 300.407 41.0035C300.407 40.6166 300.09 40.3 299.703 40.3C299.317 40.3 299 40.6166 299 41.0035C299 46.5188 303.488 51.007 309.004 51.007C314.519 51.007 319.007 46.5188 319.007 41.0035C319.007 35.4882 314.512 31 309.004 31Z" fill="white"/>
        <path d="M303.439 34.2572C303.587 34.2572 303.735 34.2149 303.861 34.1165C304.037 33.9898 304.213 33.8632 304.396 33.7506C304.726 33.5396 304.825 33.1034 304.614 32.7798C304.403 32.4492 303.974 32.3578 303.643 32.5618C303.432 32.6954 303.221 32.8432 303.017 32.9909C302.707 33.223 302.644 33.6662 302.876 33.9758C303.017 34.1587 303.228 34.2572 303.439 34.2572Z" fill="white"/>
        <path d="M299.964 38.7102C300.041 38.7383 300.112 38.7453 300.189 38.7453C300.485 38.7453 300.759 38.5624 300.857 38.267C300.928 38.063 301.005 37.859 301.09 37.662C301.244 37.3032 301.076 36.8881 300.717 36.7404C300.358 36.5856 299.943 36.7545 299.795 37.1133C299.697 37.3454 299.605 37.5846 299.528 37.8238C299.401 38.1966 299.605 38.5906 299.971 38.7172L299.964 38.7102Z" fill="white"/>
        <path d="M305.718 32.9276C305.859 32.9698 306.014 32.9698 306.162 32.9205C306.366 32.8502 306.57 32.7798 306.781 32.7236C307.153 32.618 307.379 32.2311 307.273 31.8583C307.168 31.4854 306.781 31.2603 306.408 31.3658C306.162 31.4292 305.922 31.5065 305.683 31.591C305.317 31.7246 305.127 32.1256 305.254 32.4914C305.331 32.7095 305.507 32.8643 305.711 32.9276H305.718Z" fill="white"/>
        <path d="M301.469 36.255C301.687 36.255 301.905 36.1565 302.039 35.9666C302.166 35.7907 302.299 35.6219 302.44 35.4601C302.693 35.1646 302.658 34.7214 302.363 34.4682C302.067 34.2149 301.624 34.2501 301.371 34.5456C301.209 34.7355 301.047 34.9395 300.9 35.1435C300.674 35.4601 300.745 35.8963 301.054 36.1284C301.181 36.2199 301.322 36.2621 301.469 36.2621V36.255Z" fill="white"/>
        <path d="M304.487 43.3813C304.614 43.6205 304.86 43.7541 305.113 43.7541C305.226 43.7541 305.338 43.726 305.444 43.6697L309.334 41.6155C309.566 41.4959 309.707 41.2568 309.707 40.9894V35.2983C309.707 34.9114 309.391 34.5948 309.004 34.5948C308.617 34.5948 308.3 34.9114 308.3 35.2983V40.5744L304.783 42.4245C304.438 42.6074 304.304 43.0295 304.487 43.3742V43.3813Z" fill="white"/>
    </g>
    <g clip-path="url(#clip1_12997_25168)">
        <path d="M153.546 45.3792C153.475 45.3159 153.384 45.2877 153.285 45.2877C153.194 45.2877 153.095 45.2948 153.018 45.2948H152.849C152.617 45.2948 152.49 45.4425 152.483 45.6324L152.286 50.6131C152.279 50.8101 152.434 50.9719 152.631 50.9859C152.758 50.9859 152.884 50.9859 153.025 50.9859H153.271C153.398 50.9789 153.524 50.9719 153.644 50.9648C153.743 50.9648 153.827 50.9156 153.89 50.8452C153.954 50.7749 153.989 50.6834 153.982 50.5849L153.672 45.6113C153.672 45.5199 153.623 45.4284 153.553 45.3651L153.546 45.3792Z" fill="white"/>
        <path d="M149.831 43.8878C149.767 43.8175 149.676 43.7753 149.585 43.7682C149.486 43.7612 149.395 43.7964 149.324 43.8597L145.54 47.159C145.469 47.2223 145.427 47.3067 145.42 47.4052C145.42 47.4967 145.448 47.5952 145.511 47.6655C145.736 47.9117 145.976 48.158 146.222 48.3831C146.285 48.4464 146.377 48.4745 146.468 48.4745H146.482C146.581 48.4745 146.665 48.4323 146.735 48.362L150.161 44.6968C150.295 44.5491 150.288 44.324 150.14 44.1903C150.035 44.0918 149.936 43.9933 149.838 43.8878H149.831Z" fill="white"/>
        <path d="M148.663 41.4467C148.733 41.3764 148.769 41.2849 148.769 41.1934V41.1231C148.769 41.0035 148.769 40.8769 148.783 40.7573C148.797 40.5603 148.656 40.3915 148.452 40.3704L143.422 39.9413C143.331 39.9272 143.232 39.9624 143.162 40.0257C143.091 40.089 143.042 40.1734 143.035 40.2649C143.007 40.5533 143 40.8417 143 41.1512V41.2497C143 41.3412 143.042 41.4326 143.113 41.503C143.183 41.5663 143.267 41.6015 143.366 41.6015L148.41 41.5452C148.508 41.5452 148.6 41.503 148.663 41.4397V41.4467Z" fill="white"/>
        <path d="M162.937 39.9976C162.923 39.9061 162.88 39.8147 162.803 39.7584C162.726 39.7021 162.634 39.674 162.536 39.681L157.52 40.2438C157.421 40.2578 157.337 40.3001 157.281 40.3774C157.224 40.4548 157.196 40.5463 157.203 40.6377C157.217 40.7784 157.224 40.9191 157.231 41.0598C157.231 41.1513 157.274 41.2427 157.337 41.3131C157.407 41.3764 157.492 41.4116 157.59 41.4116L162.634 41.3553C162.733 41.3553 162.824 41.3131 162.887 41.2498C162.951 41.1794 162.993 41.088 162.993 40.9965C162.993 40.6659 162.965 40.3282 162.93 39.9976H162.937Z" fill="white"/>
        <path d="M156.76 43.7541C156.69 43.6908 156.591 43.6627 156.5 43.6697C156.401 43.6767 156.317 43.726 156.254 43.7963C156.162 43.9018 156.064 44.0074 155.958 44.1059C155.888 44.1692 155.853 44.2606 155.853 44.3591C155.853 44.4506 155.888 44.542 155.958 44.6124L159.483 48.1861C159.546 48.2564 159.637 48.2916 159.736 48.2916C159.827 48.2916 159.919 48.2564 159.989 48.1931C160.228 47.9609 160.46 47.7147 160.678 47.4615C160.742 47.3911 160.77 47.2926 160.763 47.2012C160.756 47.1097 160.707 47.0183 160.636 46.962L156.767 43.7611L156.76 43.7541Z" fill="white"/>
        <path d="M156.233 38.5132C156.423 38.5132 156.605 38.4358 156.739 38.3092L160.116 34.9958C160.25 34.8621 160.327 34.6792 160.327 34.4893C160.327 34.2993 160.25 34.1164 160.116 33.9828C158.188 32.0623 155.607 31 152.856 31C150.105 31 147.559 32.0552 145.624 33.9617C145.343 34.2431 145.343 34.6933 145.624 34.9676L148.987 38.2881C149.254 38.5554 149.732 38.5554 150.007 38.2881C150.767 37.5353 151.78 37.1203 152.863 37.1203C153.946 37.1203 154.966 37.5424 155.726 38.3021C155.86 38.4358 156.043 38.5132 156.233 38.5132ZM152.856 35.6993C151.639 35.6993 150.478 36.0932 149.528 36.8108L147.172 34.4822C148.762 33.1456 150.753 32.421 152.856 32.421C154.959 32.421 156.978 33.1597 158.568 34.5033L156.205 36.8248C155.248 36.0932 154.087 35.6993 152.856 35.6993Z" fill="white"/>
    </g>
    <path d="M181.73 37H180.155V26.5H181.73V30.94H187.01V26.5H188.585V37H187.01V32.485H181.73V37ZM192.467 37H190.892V26.5H192.467V37ZM199.709 31.555H204.149V37H202.904L202.754 35.635H202.679C202.359 36.035 201.904 36.39 201.314 36.7C200.734 37 200.089 37.15 199.379 37.15C198.449 37.15 197.599 36.92 196.829 36.46C196.059 36 195.449 35.36 194.999 34.54C194.549 33.72 194.324 32.79 194.324 31.75C194.324 30.7 194.549 29.765 194.999 28.945C195.449 28.125 196.059 27.49 196.829 27.04C197.599 26.58 198.449 26.35 199.379 26.35C200.129 26.35 200.824 26.505 201.464 26.815C202.104 27.115 202.644 27.525 203.084 28.045C203.534 28.565 203.859 29.145 204.059 29.785H202.424C202.164 29.205 201.754 28.74 201.194 28.39C200.644 28.03 200.039 27.85 199.379 27.85C198.739 27.85 198.154 28.015 197.624 28.345C197.094 28.665 196.674 29.125 196.364 29.725C196.054 30.315 195.899 30.99 195.899 31.75C195.899 32.51 196.054 33.19 196.364 33.79C196.674 34.38 197.094 34.84 197.624 35.17C198.154 35.49 198.739 35.65 199.379 35.65C199.949 35.65 200.474 35.52 200.954 35.26C201.434 34.99 201.814 34.645 202.094 34.225C202.384 33.795 202.539 33.355 202.559 32.905L202.574 32.785H199.709V31.555ZM207.848 37H206.273V26.5H207.848V30.94H213.128V26.5H214.703V37H213.128V32.485H207.848V37ZM187.04 56H180.155V45.5H187.04V46.955H181.73V50.015H186.74V51.44H181.73V54.545H187.04V56ZM190.578 56H189.003V45.5H195.768V46.955H190.578V50.03H195.438V51.455H190.578V56ZM199.147 56H197.572V45.5H204.337V46.955H199.147V50.03H204.007V51.455H199.147V56ZM207.716 56H206.141V45.5H207.716V56ZM214.613 56.15C213.683 56.15 212.833 55.92 212.063 55.46C211.303 55 210.698 54.36 210.248 53.54C209.798 52.72 209.573 51.79 209.573 50.75C209.573 49.71 209.798 48.78 210.248 47.96C210.698 47.14 211.303 46.5 212.063 46.04C212.833 45.58 213.683 45.35 214.613 45.35C215.413 45.35 216.138 45.515 216.788 45.845C217.438 46.165 217.978 46.605 218.408 47.165C218.848 47.725 219.153 48.35 219.323 49.04H217.688C217.468 48.39 217.083 47.865 216.533 47.465C215.993 47.055 215.353 46.85 214.613 46.85C213.983 46.85 213.403 47.015 212.873 47.345C212.343 47.665 211.923 48.125 211.613 48.725C211.303 49.315 211.148 49.99 211.148 50.75C211.148 51.51 211.303 52.19 211.613 52.79C211.923 53.38 212.343 53.84 212.873 54.17C213.403 54.49 213.983 54.65 214.613 54.65C215.373 54.65 216.023 54.445 216.563 54.035C217.103 53.615 217.478 53.065 217.688 52.385H219.323C219.153 53.095 218.853 53.735 218.423 54.305C217.993 54.875 217.453 55.325 216.803 55.655C216.153 55.985 215.423 56.15 214.613 56.15ZM222.555 56H220.98V45.5H222.555V56ZM231.747 56H224.862V45.5H231.747V46.955H226.437V50.015H231.447V51.44H226.437V54.545H231.747V56ZM235.285 56H233.71V45.5H236.02L240.295 53.705H240.595V45.5H242.17V56H239.86L235.585 47.795H235.285V56ZM249.066 56.15C248.136 56.15 247.286 55.92 246.516 55.46C245.756 55 245.151 54.36 244.701 53.54C244.251 52.72 244.026 51.79 244.026 50.75C244.026 49.71 244.251 48.78 244.701 47.96C245.151 47.14 245.756 46.5 246.516 46.04C247.286 45.58 248.136 45.35 249.066 45.35C249.866 45.35 250.591 45.515 251.241 45.845C251.891 46.165 252.431 46.605 252.861 47.165C253.301 47.725 253.606 48.35 253.776 49.04H252.141C251.921 48.39 251.536 47.865 250.986 47.465C250.446 47.055 249.806 46.85 249.066 46.85C248.436 46.85 247.856 47.015 247.326 47.345C246.796 47.665 246.376 48.125 246.066 48.725C245.756 49.315 245.601 49.99 245.601 50.75C245.601 51.51 245.756 52.19 246.066 52.79C246.376 53.38 246.796 53.84 247.326 54.17C247.856 54.49 248.436 54.65 249.066 54.65C249.826 54.65 250.476 54.445 251.016 54.035C251.556 53.615 251.931 53.065 252.141 52.385H253.776C253.606 53.095 253.306 53.735 252.876 54.305C252.446 54.875 251.906 55.325 251.256 55.655C250.606 55.985 249.876 56.15 249.066 56.15ZM259.31 56H257.735V52.205L253.91 45.5H255.635L258.38 50.375H258.68L261.425 45.5H263.135L259.31 52.205V56Z" fill="white"/>
    <path d="M41.155 37V26.5H45.82C46.41 26.5 46.945 26.645 47.425 26.935C47.905 27.215 48.28 27.61 48.55 28.12C48.83 28.63 48.97 29.21 48.97 29.86C48.97 30.51 48.83 31.095 48.55 31.615C48.28 32.125 47.905 32.525 47.425 32.815C46.945 33.095 46.41 33.235 45.82 33.235H42.73V37H41.155ZM45.775 31.735C46.225 31.735 46.605 31.565 46.915 31.225C47.235 30.875 47.395 30.42 47.395 29.86C47.395 29.3 47.24 28.85 46.93 28.51C46.62 28.17 46.235 28 45.775 28H42.73V31.735H45.775ZM57.6787 37H50.7937V26.5H57.6787V27.955H52.3687V31.015H57.3787V32.44H52.3687V35.545H57.6787V37ZM63.8563 33.145L67.7263 37H65.7613L61.9513 33.16H61.2163V37H59.6413V26.5H64.3363C64.9263 26.5 65.4563 26.645 65.9263 26.935C66.4063 27.215 66.7813 27.61 67.0513 28.12C67.3313 28.63 67.4713 29.205 67.4713 29.845C67.4713 30.475 67.3363 31.04 67.0663 31.54C66.7963 32.04 66.4313 32.435 65.9713 32.725C65.5113 33.005 65.0113 33.145 64.4713 33.145H63.8563ZM61.2163 31.705H64.2913C64.7413 31.705 65.1213 31.535 65.4313 31.195C65.7413 30.845 65.8963 30.395 65.8963 29.845C65.8963 29.295 65.7413 28.845 65.4313 28.495C65.1213 28.145 64.7413 27.97 64.2913 27.97H61.2163V31.705ZM71.0161 37H69.4411V26.5H76.2061V27.955H71.0161V31.03H75.8761V32.455H71.0161V37ZM84.8955 37H78.0105V26.5H84.8955V27.955H79.5855V31.015H84.5955V32.44H79.5855V35.545H84.8955V37ZM91.4481 37.15C90.5181 37.15 89.6681 36.92 88.8981 36.46C88.1381 36 87.5331 35.36 87.0831 34.54C86.6331 33.72 86.4081 32.79 86.4081 31.75C86.4081 30.71 86.6331 29.78 87.0831 28.96C87.5331 28.14 88.1381 27.5 88.8981 27.04C89.6681 26.58 90.5181 26.35 91.4481 26.35C92.2481 26.35 92.9731 26.515 93.6231 26.845C94.2731 27.165 94.8131 27.605 95.2431 28.165C95.6831 28.725 95.9881 29.35 96.1581 30.04H94.5231C94.3031 29.39 93.9181 28.865 93.3681 28.465C92.8281 28.055 92.1881 27.85 91.4481 27.85C90.8181 27.85 90.2381 28.015 89.7081 28.345C89.1781 28.665 88.7581 29.125 88.4481 29.725C88.1381 30.315 87.9831 30.99 87.9831 31.75C87.9831 32.51 88.1381 33.19 88.4481 33.79C88.7581 34.38 89.1781 34.84 89.7081 35.17C90.2381 35.49 90.8181 35.65 91.4481 35.65C92.2081 35.65 92.8581 35.445 93.3981 35.035C93.9381 34.615 94.3131 34.065 94.5231 33.385H96.1581C95.9881 34.095 95.6881 34.735 95.2581 35.305C94.8281 35.875 94.2881 36.325 93.6381 36.655C92.9881 36.985 92.2581 37.15 91.4481 37.15ZM101.587 37H100.012V28H96.7122V26.5H104.872V28H101.587V37ZM42.73 56H41.155V45.5H43.795L46.675 53.825H46.975L49.84 45.5H52.495V56H50.92V47.855H50.62L47.785 56H45.85L43.03 47.855H42.73V56ZM63.6427 56H61.9477L61.0477 53.48H56.2177L55.3177 56H53.6077L57.4777 45.5H59.7877L63.6427 56ZM58.4827 47.18L56.7277 52.055H60.5377L58.7827 47.18H58.4827ZM67.9544 56H66.3794V47H63.0794V45.5H71.2394V47H67.9544V56ZM77.0341 56.15C76.1041 56.15 75.2541 55.92 74.4841 55.46C73.7241 55 73.1191 54.36 72.6691 53.54C72.2191 52.72 71.9941 51.79 71.9941 50.75C71.9941 49.71 72.2191 48.78 72.6691 47.96C73.1191 47.14 73.7241 46.5 74.4841 46.04C75.2541 45.58 76.1041 45.35 77.0341 45.35C77.8341 45.35 78.5591 45.515 79.2091 45.845C79.8591 46.165 80.3991 46.605 80.8291 47.165C81.2691 47.725 81.5741 48.35 81.7441 49.04H80.1091C79.8891 48.39 79.5041 47.865 78.9541 47.465C78.4141 47.055 77.7741 46.85 77.0341 46.85C76.4041 46.85 75.8241 47.015 75.2941 47.345C74.7641 47.665 74.3441 48.125 74.0341 48.725C73.7241 49.315 73.5691 49.99 73.5691 50.75C73.5691 51.51 73.7241 52.19 74.0341 52.79C74.3441 53.38 74.7641 53.84 75.2941 54.17C75.8241 54.49 76.4041 54.65 77.0341 54.65C77.7941 54.65 78.4441 54.445 78.9841 54.035C79.5241 53.615 79.8991 53.065 80.1091 52.385H81.7441C81.5741 53.095 81.2741 53.735 80.8441 54.305C80.4141 54.875 79.8741 55.325 79.2241 55.655C78.5741 55.985 77.8441 56.15 77.0341 56.15ZM84.9761 56H83.4011V45.5H84.9761V49.94H90.2561V45.5H91.8311V56H90.2561V51.485H84.9761V56Z" fill="white"/>
    <g clip-path="url(#clip2_12997_25168)">
        <path d="M17.1615 32.3166H19.6877C20.0553 32.3166 20.356 32.0225 20.356 31.655C20.356 31.2874 20.0553 30.9933 19.6877 30.9933H15.6244C15.2569 30.9933 14.9561 31.2874 14.9561 31.655V35.6782C14.9561 36.0391 15.2569 36.3398 15.6244 36.3398C15.992 36.3398 16.2927 36.0458 16.2927 35.6782V33.3391C18.9726 34.7292 20.6768 37.4693 20.6768 40.5034C20.6768 44.961 17.0145 48.5899 12.5101 48.5899C12.1425 48.5899 11.8418 48.884 11.8418 49.2515C11.8418 49.6191 12.1425 49.9132 12.5101 49.9132C17.7496 49.9132 22.0134 45.6961 22.0134 40.5101C22.0134 37.0816 20.1422 33.974 17.1682 32.3166H17.1615Z" fill="white"/>
        <path d="M9.49596 44.6602C9.12839 44.6602 8.82765 44.9542 8.82765 45.3218V47.7478C8.82765 47.7478 8.8076 47.7277 8.78755 47.721C6.03412 46.331 4.32325 43.5708 4.32325 40.51C4.32993 36.0457 7.99895 32.4235 12.5033 32.4235C12.8709 32.4235 13.1716 32.1294 13.1716 31.7618C13.1716 31.3943 12.8709 31.1002 12.5033 31.1002C7.26381 31.1069 3 35.3239 3 40.51C3 43.9251 4.83785 47.0126 7.8185 48.6901H5.43932C5.07176 48.6901 4.77102 48.9841 4.77102 49.3517C4.77102 49.7193 5.07176 50.0133 5.43932 50.0133H9.50264C9.87021 50.0133 10.1709 49.7193 10.1709 49.3517V45.3285C10.1709 44.9676 9.87021 44.6669 9.50264 44.6669L9.49596 44.6602Z" fill="white"/>
    </g>
    <defs>
        <clipPath id="clip0_12997_25168">
            <rect width="20" height="20" fill="white" transform="translate(299 31)"/>
        </clipPath>
        <clipPath id="clip1_12997_25168">
            <rect width="20" height="20" fill="white" transform="translate(143 31)"/>
        </clipPath>
        <clipPath id="clip2_12997_25168">
            <rect width="19" height="19" fill="white" transform="translate(3 31)"/>
        </clipPath>
    </defs>
</svg>